<?xml version="1.0" encoding="utf-8"?>
<!-- Generator: Adobe Illustrator 23.0.2, SVG Export Plug-In . SVG Version: 6.00 Build 0)  -->
<svg version="1.1" id="图层_1" xmlns="http://www.w3.org/2000/svg" xmlns:xlink="http://www.w3.org/1999/xlink" x="0px" y="0px"
	 viewBox="0 0 56.7 56.7" style="enable-background:new 0 0 56.7 56.7;" xml:space="preserve">
<style type="text/css">
	.st0{fill:#207EB6;}
	.st1{fill:#FFFFFF;}
	.st2{clip-path:url(#SVGID_2_);fill:#FFFFFF;}
	.st3{clip-path:url(#SVGID_4_);fill:#207EB6;}
	.st4{clip-path:url(#SVGID_4_);}
	.st5{clip-path:url(#SVGID_6_);fill:#FFFFFF;}
	.st6{clip-path:url(#SVGID_8_);fill:#207EB6;}
	.st7{clip-path:url(#SVGID_8_);fill:#FFFFFF;}
	.st8{clip-path:url(#SVGID_8_);}
	.st9{clip-path:url(#SVGID_10_);fill:#FFFFFF;}
	.st10{clip-path:url(#SVGID_12_);fill:#FFFFFF;}
	.st11{fill:none;}
	.st12{clip-path:url(#SVGID_18_);fill:#207EB6;}
	.st13{opacity:0.5;clip-path:url(#SVGID_18_);}
	.st14{clip-path:url(#SVGID_20_);fill:#FFFFFF;}
	.st15{clip-path:url(#SVGID_18_);fill:#FFFFFF;}
	.st16{clip-path:url(#SVGID_22_);fill:#FFFFFF;}
	.st17{clip-path:url(#SVGID_24_);fill:#FFFFFF;}
</style>
<g>
	<defs>
		<circle id="SVGID_17_" cx="28.3" cy="28.3" r="28.3"/>
	</defs>
	<clipPath id="SVGID_2_">
		<use xlink:href="#SVGID_17_"  style="overflow:visible;"/>
	</clipPath>
	<circle style="clip-path:url(#SVGID_2_);fill:#207EB6;" cx="28.3" cy="28.3" r="28.3"/>
	<g style="opacity:0.5;clip-path:url(#SVGID_2_);">
		<g>
			<defs>
				<rect id="SVGID_19_" x="-13.4" y="1.9" width="67.4" height="57.6"/>
			</defs>
			<clipPath id="SVGID_4_">
				<use xlink:href="#SVGID_19_"  style="overflow:visible;"/>
			</clipPath>
			<path style="clip-path:url(#SVGID_4_);fill:#FFFFFF;" d="M17,1.9c0,0,31.4,13.7,13.5,24.6C12.7,37.5-24.6,48.9-10.2,59.3
				c0.1,0.1,31.2,0,31.2,0h32.9c0,0-26.8-7-8.9-25.8C62.9,14.6,17,1.9,17,1.9L17,1.9z M17,1.9"/>
		</g>
	</g>
	<path class="st2" d="M53.6,16.8c-0.7-0.7-1.7-1.3-2.9-1.9c-1.2-0.6-2.6-1.1-4.1-1.5c-1.6-0.4-3.1-0.5-4.8-0.4
		c-2.6,0.2-4.6,0.6-6.2,1.4c-1.6,0.8-2.7,1.7-3.5,2.9c-0.7,1.1-1.1,2.3-1.1,3.6c0,1.3,0.3,2.5,1,3.6c-0.4,0.5-0.7,1-1,1.5
		c-0.3,0.5-0.6,1-0.9,1.7c-0.8,1.9-1.2,3.8-1.4,5.7c-1.2-1.7-2.4-3.2-3.6-4.3c0.3-1.2,0.3-2.3,0.1-3.5c-0.2-1.2-0.8-2.2-1.7-3.1
		c-0.9-0.9-2.2-1.6-3.7-2c-1.6-0.5-3.6-0.6-6-0.4c-1.6,0.2-3.1,0.5-4.5,1.1c-1.4,0.6-2.7,1.3-3.7,2c-1.1,0.7-1.9,1.5-2.5,2.3
		c-0.6,0.8-1,1.4-1,1.9c0,0.5,0.3,0.8,0.8,0.8c0.6,0,1.3,0,2.1-0.1c0.9-0.1,1.8-0.1,2.9-0.1c1.1,0,2.1,0.3,3.1,0.9
		c0.7,0.3,1.3,0.7,1.9,1.2c0.6,0.5,1.3,0.9,1.9,1.3c0.6,0.4,1.2,0.8,1.8,1.1c0.6,0.3,1.3,0.5,2,0.7c0.4,0.1,0.8,0.1,1.4,0.1
		c0.5,0,1.1-0.1,1.6-0.2c0.6-0.2,1.1-0.5,1.7-1c0.6-0.5,1-1.2,1.5-2.1c0.7,0.8,1.3,1.6,1.9,2.4c0.6,0.8,1.2,1.9,1.8,3.1
		c0,0.6,0,1.2,0.1,1.8c0,0.6,0.1,1.2,0.1,1.8c0,0.6,0,1.2-0.1,1.7c-0.1,0.5-0.2,1-0.4,1.4c-0.2,0.3-0.3,0.6-0.2,0.8
		c0,0.2,0.1,0.4,0.3,0.5c0.2,0.2,0.6,0.3,1.2,0.3c0.5,0,0.9-0.1,1.1-0.3c0.2-0.2,0.3-0.4,0.3-0.5c0-0.2-0.1-0.5-0.3-0.9
		c-0.2-0.3-0.3-0.8-0.3-1.5c-0.1-0.7-0.1-1.5-0.1-2.3c0-0.8,0-1.7,0-2.6c0-0.9,0.1-1.6,0.2-2.2c0.1-0.7,0.2-1.4,0.3-2.2
		c0.1-0.8,0.3-1.5,0.5-2.3c0.2-0.7,0.4-1.4,0.7-2c0.2-0.6,0.5-1.2,0.9-1.6c0.5,0.7,1.1,1.2,1.7,1.6c0.6,0.3,1.2,0.5,1.7,0.5
		c0.6,0.1,1.1,0,1.6-0.1c0.5-0.1,0.9-0.2,1.3-0.3c0.7-0.2,1.3-0.6,1.9-1c0.6-0.4,1.2-0.9,1.7-1.4c0.6-0.5,1.1-1.1,1.7-1.6
		c0.6-0.6,1.1-1.1,1.8-1.5c0.9-0.7,1.9-1.2,2.9-1.4c1-0.2,2-0.4,2.9-0.4c0.9-0.1,1.6-0.2,2.2-0.3c0.6-0.1,0.9-0.4,0.9-0.8
		C54.7,18,54.4,17.5,53.6,16.8z M24.3,29.8c-1.1-1.1-2.2-1.9-3.4-2.6c-1.2-0.6-2.3-1.1-3.5-1.4c-1.2-0.3-2.3-0.5-3.5-0.5
		c-1.2,0-2.3,0-3.4,0.1c-0.1,0-0.1,0-0.2,0c0,0,0,0,0.1,0c2.5-0.7,5-0.7,7.4-0.2c2.4,0.5,4.6,1.7,6.8,3.6L24.3,29.8z M45.9,17.8
		c0,0-0.1,0-0.2,0c-1,0-2,0.2-3.1,0.4c-1.1,0.2-2.2,0.6-3.3,1.1c-1.1,0.5-2.2,1.3-3.3,2.2c-1.1,0.9-2.2,2.1-3.2,3.5l-0.6-1
		c1.7-2.2,3.7-3.9,6-5c2.3-1.1,4.8-1.6,7.6-1.3C45.9,17.8,46,17.8,45.9,17.8z"/>
</g>
</svg>
